<svg width="299" height="299" viewBox="0 0 299 299" fill="none" xmlns="http://www.w3.org/2000/svg">
<g filter="url(#filter0_ii_15_97)">
<rect width="299" height="299" rx="39" fill="url(#paint0_linear_15_97)"/>
</g>
<g transform="translate(44.5, 105)">
<path d="M70.4037 44.1774H23.4633L0 88.3549H46.9266L70.4037 44.1774Z" fill="white"/>
<path d="M70.4033 44.1774H117.344L140.807 88.3549H93.8666L70.4033 44.1774Z" fill="white"/>
<path d="M46.9268 0H93.8671L117.344 44.1775H70.4038L46.9268 0Z" fill="white"/>
<path d="M138.883 44.1774H185.823L209.286 88.3549H162.36L138.883 44.1774Z" fill="white"/>
<path d="M115.419 0H162.36L185.823 44.1775H138.883L115.419 0Z" fill="white"/>
<path d="M161.989 0H115.048L91.585 44.1775H138.512L161.989 0Z" fill="white"/>
</g>
<defs>
<filter id="filter0_ii_15_97" x="0" y="0" width="299" height="305" filterUnits="userSpaceOnUse" color-interpolation-filters="sRGB">
<feFlood flood-opacity="0" result="BackgroundImageFix"/>
<feBlend mode="normal" in="SourceGraphic" in2="BackgroundImageFix" result="shape"/>
<feColorMatrix in="SourceAlpha" type="matrix" values="0 0 0 0 0 0 0 0 0 0 0 0 0 0 0 0 0 0 127 0" result="hardAlpha"/>
<feOffset dy="6"/>
<feGaussianBlur stdDeviation="3.4"/>
<feComposite in2="hardAlpha" operator="arithmetic" k2="-1" k3="1"/>
<feColorMatrix type="matrix" values="0 0 0 0 1 0 0 0 0 0.480769 0 0 0 0 0.480769 0 0 0 1 0"/>
<feBlend mode="normal" in2="shape" result="effect1_innerShadow_15_97"/>
<feColorMatrix in="SourceAlpha" type="matrix" values="0 0 0 0 0 0 0 0 0 0 0 0 0 0 0 0 0 0 127 0" result="hardAlpha"/>
<feOffset dy="4"/>
<feGaussianBlur stdDeviation="18.8"/>
<feComposite in2="hardAlpha" operator="arithmetic" k2="-1" k3="1"/>
<feColorMatrix type="matrix" values="0 0 0 0 0.94902 0 0 0 0 0.184314 0 0 0 0 0.184314 0 0 0 0.65 0"/>
<feBlend mode="normal" in2="effect1_innerShadow_15_97" result="effect2_innerShadow_15_97"/>
</filter>
<linearGradient id="paint0_linear_15_97" x1="149.5" y1="0" x2="149.5" y2="299" gradientUnits="userSpaceOnUse">
<stop stop-color="#FF3232"/>
<stop offset="1" stop-color="#690C0C"/>
</linearGradient>
</defs>
</svg>
